<mxfile host="app.diagrams.net" modified="2021-06-03T07:41:23.672Z" agent="5.0 (Windows)" etag="jniuhT4uIQ3_mBy1Jm68" version="14.7.3" type="github">
  <diagram id="dm52R6nY966aKzihAJZx" name="Page-1">
    <mxGraphModel dx="2062" dy="1133" grid="1" gridSize="10" guides="1" tooltips="1" connect="1" arrows="1" fold="1" page="1" pageScale="1" pageWidth="1654" pageHeight="1169" math="0" shadow="0">
      <root>
        <mxCell id="0" />
        <mxCell id="1" parent="0" />
        <mxCell id="iv_Oz-Tk-qWS8nwZnw3V-1" value="nen2660:DiscreteObject" style="swimlane;fontStyle=1;align=center;verticalAlign=top;childLayout=stackLayout;horizontal=1;startSize=26;horizontalStack=0;resizeParent=1;resizeParentMax=0;resizeLast=0;collapsible=1;marginBottom=0;" vertex="1" parent="1">
          <mxGeometry x="640" y="200" width="160" height="34" as="geometry" />
        </mxCell>
        <mxCell id="iv_Oz-Tk-qWS8nwZnw3V-3" value="" style="line;strokeWidth=1;fillColor=none;align=left;verticalAlign=middle;spacingTop=-1;spacingLeft=3;spacingRight=3;rotatable=0;labelPosition=right;points=[];portConstraint=eastwest;" vertex="1" parent="iv_Oz-Tk-qWS8nwZnw3V-1">
          <mxGeometry y="26" width="160" height="8" as="geometry" />
        </mxCell>
        <mxCell id="iv_Oz-Tk-qWS8nwZnw3V-5" value="nen2660:SpatialRegion" style="swimlane;fontStyle=1;align=center;verticalAlign=top;childLayout=stackLayout;horizontal=1;startSize=26;horizontalStack=0;resizeParent=1;resizeParentMax=0;resizeLast=0;collapsible=1;marginBottom=0;" vertex="1" parent="1">
          <mxGeometry x="920" y="200" width="160" height="34" as="geometry" />
        </mxCell>
        <mxCell id="iv_Oz-Tk-qWS8nwZnw3V-6" value="" style="line;strokeWidth=1;fillColor=none;align=left;verticalAlign=middle;spacingTop=-1;spacingLeft=3;spacingRight=3;rotatable=0;labelPosition=right;points=[];portConstraint=eastwest;" vertex="1" parent="iv_Oz-Tk-qWS8nwZnw3V-5">
          <mxGeometry y="26" width="160" height="8" as="geometry" />
        </mxCell>
      </root>
    </mxGraphModel>
  </diagram>
</mxfile>
